<?xml version="1.0" encoding="UTF-8"?>
<svg version="1.1" xmlns="http://www.w3.org/2000/svg" width="500" height="500">
<path d="M0 0 C1.26575615 -0.00856522 1.26575615 -0.00856522 2.55708313 -0.01730347 C3.47972458 -0.01842133 4.40236603 -0.01953918 5.35296631 -0.02069092 C6.32727097 -0.02565582 7.30157562 -0.03062073 8.30540466 -0.03573608 C11.53448184 -0.0503623 14.76350986 -0.05716094 17.99261475 -0.06268311 C20.23600262 -0.06843474 22.47939048 -0.07419247 24.72277832 -0.07995605 C29.43040191 -0.09046773 34.13800841 -0.09630913 38.84564209 -0.09979248 C44.87259791 -0.10527365 50.89932741 -0.1292931 56.92621231 -0.15776443 C61.56224218 -0.17640629 66.19821774 -0.18159727 70.83428192 -0.18312836 C73.05579616 -0.18615255 75.27730949 -0.19417317 77.49878693 -0.20731354 C80.6105103 -0.22440395 83.72168355 -0.22248613 86.83343506 -0.21600342 C87.74797958 -0.2252182 88.66252411 -0.23443298 89.6047821 -0.243927 C96.51318692 -0.19893436 101.25189825 0.94480908 106.66448975 5.51544189 C111.13150543 10.87586072 111.428707 16.58062977 112.12054443 23.29571533 C112.23133835 24.31586731 112.34213226 25.33601929 112.45628357 26.38708496 C112.81992965 29.75721481 113.17253257 33.12838253 113.52386475 36.49981689 C113.77219939 38.84767962 114.02075812 41.19551866 114.26953125 43.54333496 C114.78905916 48.4654715 115.30253969 53.38819749 115.81243896 58.31134033 C116.46562458 64.60864667 117.13879486 70.90363753 117.81721115 77.19826889 C118.3367493 82.04779451 118.8430224 86.89863867 119.3456192 91.74994659 C119.58815172 94.07077418 119.8353705 96.39111714 120.08742523 98.71092987 C120.43915198 101.96188107 120.77229414 105.21424306 121.10101318 108.46759033 C121.26137306 109.8940387 121.26137306 109.8940387 121.42497253 111.3493042 C122.07422093 118.05009229 121.84816984 124.38965763 118.62542725 130.44512939 C118.16394287 130.96333252 117.7024585 131.48153564 117.22698975 132.01544189 C116.78097412 132.54911377 116.3349585 133.08278564 115.87542725 133.63262939 C109.82051892 138.14458811 103.2814199 138.59861014 96.01605225 138.57403564 C95.09665863 138.5792775 94.17726501 138.58451935 93.23001099 138.58992004 C91.29542037 138.59631008 89.36079075 138.59504263 87.4262085 138.58648682 C84.49189899 138.57798509 81.55954464 138.60676725 78.62542725 138.63848877 C76.73480282 138.64010147 74.844175 138.63952194 72.95355225 138.63653564 C72.08968903 138.64776962 71.22582581 138.6590036 70.33578491 138.670578 C61.75848833 138.57413583 53.75433692 135.88475653 47.387146 129.98419189 C41.66102814 123.10702236 39.07779931 114.99820746 39.85198975 106.14044189 C40.50929311 103.1438719 41.42403564 100.25025787 42.35198975 97.32794189 C45.87317184 85.94757712 45.87317184 85.94757712 43.67230225 74.58184814 C40.59255543 69.59521146 37.56765308 66.54983143 32.03948975 64.45294189 C25.615568 63.53523879 20.71210918 64.37819507 14.53948975 66.20294189 C7.24067824 68.29581052 0.72459792 69.24661215 -6.425354 66.15606689 C-12.39300049 62.73328269 -17.19128597 57.79924327 -19.644104 51.25372314 C-21.78534988 42.2737695 -19.87335337 32.24407304 -18.89801025 23.20294189 C-18.78892334 22.11255615 -18.67983643 21.02217041 -18.56744385 19.89874268 C-17.86088829 13.90459569 -17.15566961 9.74210704 -13.14801025 5.14044189 C-8.81392041 1.86776181 -5.43804774 0.02207016 0 0 Z " fill="#EF8121" transform="translate(183.14801025390625,148.85955810546875)"/>
<path d="M0 0 C2.52973258 2.9130254 2.72279239 4.56585774 3.0625 8.375 C2.56860352 11.12207031 2.56860352 11.12207031 1.69140625 13.953125 C1.36809326 15.01966309 1.04478027 16.08620117 0.71166992 17.18505859 C0.35306885 18.32023926 -0.00553223 19.45541992 -0.375 20.625 C-0.73682373 21.80271973 -1.09864746 22.98043945 -1.47143555 24.19384766 C-2.23269842 26.66823978 -2.99916294 29.14103687 -3.77050781 31.61230469 C-4.92063874 35.32063478 -6.0392588 39.0370492 -7.1484375 42.7578125 C-7.84855625 45.08866248 -8.54906274 47.41939603 -9.25 49.75 C-9.57476318 50.8421582 -9.89952637 51.93431641 -10.23413086 53.05957031 C-10.54487549 54.07889648 -10.85562012 55.09822266 -11.17578125 56.1484375 C-11.44430908 57.03966309 -11.71283691 57.93088867 -11.98950195 58.84912109 C-14.55455039 65.68352519 -14.55455039 65.68352519 -17.9375 67.375 C-25.15946288 67.95741636 -25.15946288 67.95741636 -27.98828125 65.83984375 C-30.47230672 62.69872136 -31.80222157 59.31385428 -33.25 55.625 C-38.21849365 43.87493447 -43.6718766 38.86387714 -55.31640625 33.91796875 C-64.52464214 29.99428679 -64.52464214 29.99428679 -66.9375 26.375 C-67.66477273 20.73863636 -67.66477273 20.73863636 -66.9375 18.375 C-61.91427581 13.22433339 -56.50108894 11.58825479 -49.6953125 9.60546875 C-48.61297333 9.27960281 -47.53063416 8.95373688 -46.41549683 8.61799622 C-44.13311442 7.93460541 -41.84855471 7.25844951 -39.56201172 6.58911133 C-36.07562658 5.56635079 -32.59827361 4.51646973 -29.12109375 3.46289062 C-26.89631931 2.80044901 -24.67107332 2.13958859 -22.4453125 1.48046875 C-21.41173615 1.16804733 -20.37815979 0.85562592 -19.31326294 0.53373718 C-6.00402386 -3.3213749 -6.00402386 -3.3213749 0 0 Z " fill="#1C486F" transform="translate(215.9375,224.625)"/>
<path d="M0 0 C5.33333333 0 10.66666667 0 16 0 C16.72832031 -0.04640625 17.45664062 -0.0928125 18.20703125 -0.140625 C22.39951618 -0.31662137 25.22393321 -0.40420145 29 1.5625 C34.3798523 8.11919499 33.33942805 17.1091658 33.31567383 25.1328125 C33.31251772 27.36247865 33.33600405 29.59081016 33.36132812 31.8203125 C33.39508778 39.36828547 33.1463875 45.99871643 30 53 C26.95618587 55.95429019 24.39803254 56.16474812 20.3125 56.25 C17.75462681 56.19841264 16.29877109 56.14938555 14 55 C14 58.63 14 62.26 14 66 C9.38 66 4.76 66 0 66 C0 44.22 0 22.44 0 0 Z M15 11 C13.64894855 12.12427635 13.64894855 12.12427635 13.88647461 15.05102539 C13.88663366 16.39991271 13.89232388 17.74880614 13.90234375 19.09765625 C13.9037587 19.80651474 13.90517365 20.51537323 13.90663147 21.24571228 C13.91224557 23.51801712 13.92480037 25.79022475 13.9375 28.0625 C13.94251319 29.59960796 13.94707641 31.13671745 13.95117188 32.67382812 C13.96221958 36.44925642 13.97949359 40.22461171 14 44 C15.32 44.33 16.64 44.66 18 45 C19.13004939 41.60985184 19.12941627 39.00618687 19.1328125 35.43359375 C19.13410156 34.14388672 19.13539063 32.85417969 19.13671875 31.52539062 C19.13462402 30.85483643 19.1325293 30.18428223 19.13037109 29.4934082 C19.12501043 27.4414941 19.13032881 25.38979801 19.13671875 23.33789062 C19.13478516 21.40526367 19.13478516 21.40526367 19.1328125 19.43359375 C19.13168457 18.24822021 19.13055664 17.06284668 19.12939453 15.84155273 C19.19506341 13.05174041 19.19506341 13.05174041 18 11 C17.01 11 16.02 11 15 11 Z " fill="#1C486F" transform="translate(284,312)"/>
<path d="M0 0 C4.62 0 9.24 0 14 0 C14.33 3.96 14.66 7.92 15 12 C15.99 11.34 16.98 10.68 18 10 C21.06526351 9.45468158 23.93408329 9.45674107 27 10 C29.75569447 12.18159145 31.43588747 13.87177494 33 17 C33.08991092 18.54227856 33.11756961 20.08840895 33.11352539 21.63330078 C33.11344986 22.59414581 33.11337433 23.55499084 33.11329651 24.54495239 C33.10813522 25.58457123 33.10297394 26.62419006 33.09765625 27.6953125 C33.0962413 28.75789276 33.09482635 29.82047302 33.09336853 30.91525269 C33.08775834 34.31853009 33.07520409 37.72174238 33.0625 41.125 C33.05748631 43.42838447 33.05292318 45.73176997 33.04882812 48.03515625 C33.03778559 53.69012936 33.02051409 59.34505363 33 65 C28.71 65 24.42 65 20 65 C19.67 50.48 19.34 35.96 19 21 C17.68 21 16.36 21 15 21 C14.67 35.52 14.34 50.04 14 65 C9.38 65 4.76 65 0 65 C0 43.55 0 22.1 0 0 Z " fill="#1C486F" transform="translate(209,302)"/>
<path d="M0 0 C4.8646218 4.98935569 4.67550455 10.34784324 5 17 C0.38 17 -4.24 17 -9 17 C-9.33 15.02 -9.66 13.04 -10 11 C-10.99 11 -11.98 11 -13 11 C-12.69223034 17.14399424 -8.16540881 20.054118 -3.92382812 23.91992188 C1.20091606 28.76608427 4.50805069 33.46726163 5.49609375 40.5625 C5.23524102 55.86586026 5.23524102 55.86586026 0 60.9375 C-5.12569468 63.6605253 -10.33528104 63.46192987 -16 63 C-19.62101295 61.64212015 -22.7248213 60.18525018 -25 57 C-27.53911828 50.7190232 -27.15101879 44.72033635 -27 38 C-22.38 38 -17.76 38 -13 38 C-12.67 41.63 -12.34 45.26 -12 49 C-11.01 49.33 -10.02 49.66 -9 50 C-8.89216575 43.34508648 -10.35091402 39.80682763 -14.953125 35.04296875 C-15.62859375 34.36878906 -16.3040625 33.69460938 -17 33 C-18.44960015 31.44871927 -19.88715787 29.88609852 -21.3125 28.3125 C-21.96863281 27.60738281 -22.62476563 26.90226562 -23.30078125 26.17578125 C-27.44473975 20.8696091 -27.64870612 15.48706118 -27 9 C-25.77776477 3.95827968 -23.39656916 0.78806825 -19 -2 C-12.78183436 -4.48726626 -5.68615753 -3.23863755 0 0 Z " fill="#1C486F" transform="translate(201,305)"/>
<path d="M0 0 C1.54300781 -0.03867187 1.54300781 -0.03867187 3.1171875 -0.078125 C7.41588525 0.39082385 9.9593163 2.35075829 13.3125 4.9375 C18.36661594 11.38585482 17.42778294 20.49090768 17.375 28.25 C17.38660156 29.95542969 17.38660156 29.95542969 17.3984375 31.6953125 C17.36399591 46.53963653 17.36399591 46.53963653 12.75 52.125 C6.83046336 56.91700585 1.5776869 56.90847033 -5.875 56.25 C-9.54049946 54.89955283 -12.52687841 53.41996415 -14.875 50.25 C-17.40219024 43.89795188 -17.21174236 37.70914793 -17.19067383 30.9921875 C-17.18751873 28.88749126 -17.21099318 26.78420999 -17.23632812 24.6796875 C-17.27011655 17.62507296 -17.15085371 11.60625075 -13.875 5.25 C-9.49840627 0.98282112 -5.99233065 0.08966081 0 0 Z M-1.875 11.25 C-3.32612776 14.15225551 -3.00485159 16.69911234 -3.0078125 19.9375 C-3.00876923 20.59580811 -3.00972595 21.25411621 -3.01071167 21.93237305 C-3.01139225 23.32438248 -3.00954646 24.7163951 -3.00537109 26.10839844 C-3.00002104 28.24160883 -3.00532012 30.37460867 -3.01171875 32.5078125 C-3.01105795 33.85937547 -3.00977674 35.2109383 -3.0078125 36.5625 C-3.00668457 37.79613281 -3.00555664 39.02976562 -3.00439453 40.30078125 C-3.07869803 43.18225331 -3.07869803 43.18225331 -1.875 45.25 C0.105 44.755 0.105 44.755 2.125 44.25 C2.125 33.69 2.125 23.13 2.125 12.25 C0.805 11.92 -0.515 11.59 -1.875 11.25 Z " fill="#1C486F" transform="translate(262.875,311.75)"/>
<path d="M0 0 C8.58 0 17.16 0 26 0 C26 4.29 26 8.58 26 13 C22.04 13 18.08 13 14 13 C14 16.96 14 20.92 14 25 C17.96 25 21.92 25 26 25 C26 29.29 26 33.58 26 38 C22.04 38 18.08 38 14 38 C14 42.29 14 46.58 14 51 C18.29 51 22.58 51 27 51 C27 55.29 27 59.58 27 64 C18.09 64 9.18 64 0 64 C0 42.88 0 21.76 0 0 Z " fill="#EF8121" transform="translate(145,303)"/>
<path d="M0 0 C8.25650189 8.71617865 9.85417102 19.26848028 10.0546875 30.84375 C9.80100781 33.41064452 9.19464044 35.00150796 7.82421875 37.17578125 C5.94921875 38.05078125 5.94921875 38.05078125 3.82421875 38.17578125 C1.15815856 37.18553032 0.1103211 36.74798595 -1.17578125 34.17578125 C-1.26944916 32.35654234 -1.35851353 30.53684349 -1.41479492 28.71606445 C-1.67731609 20.9808478 -2.06272871 14.54872447 -7.59765625 8.6640625 C-12.81758991 3.96881289 -17.60855674 2.63032555 -24.48046875 2.8046875 C-30.1023535 3.57871511 -35.09954395 5.81382322 -38.87890625 10.11328125 C-43.45009327 17.04887535 -43.35231627 23.86550999 -43.6015625 31.99609375 C-44.17578125 35.17578125 -44.17578125 35.17578125 -46.05078125 37.15234375 C-48.17578125 38.17578125 -48.17578125 38.17578125 -50.86328125 37.42578125 C-53.17578125 36.17578125 -53.17578125 36.17578125 -54.17578125 35.17578125 C-54.88416213 22.20696206 -54.89611984 11.63908729 -46.25390625 1.25390625 C-33.15684716 -11.84315284 -13.98032289 -11.72138382 0 0 Z " fill="#1C486F" transform="translate(252.17578125,104.82421875)"/>
</svg>
